<?xml version="1.0" encoding="UTF-8"?>
<svg xmlns="http://www.w3.org/2000/svg" xmlns:xlink="http://www.w3.org/1999/xlink" viewBox="0 0 64 64" width="64px" height="64px">
<defs>
<linearGradient id="linear0" gradientUnits="userSpaceOnUse" x1="72.5625" y1="62.148441" x2="72.5625" y2="82.861" gradientTransform="matrix(0.372093,0,0,0.372093,0,0)">
<stop offset="0" style="stop-color:rgb(96.862745%,90.588236%,70.19608%);stop-opacity:1;"/>
<stop offset="1" style="stop-color:rgb(60.784316%,87.843138%,77.64706%);stop-opacity:1;"/>
</linearGradient>
<linearGradient id="linear1" gradientUnits="userSpaceOnUse" x1="86" y1="15.45313" x2="86" y2="158.941437" gradientTransform="matrix(0.372093,0,0,0.372093,0,0)">
<stop offset="0" style="stop-color:rgb(92.54902%,78.431374%,30.588236%);stop-opacity:1;"/>
<stop offset="1" style="stop-color:rgb(27.058825%,77.254903%,58.431375%);stop-opacity:1;"/>
</linearGradient>
<linearGradient id="linear2" gradientUnits="userSpaceOnUse" x1="86" y1="15.45313" x2="86" y2="158.941437" gradientTransform="matrix(0.372093,0,0,0.372093,0,0)">
<stop offset="0" style="stop-color:rgb(92.54902%,78.431374%,30.588236%);stop-opacity:1;"/>
<stop offset="1" style="stop-color:rgb(27.058825%,77.254903%,58.431375%);stop-opacity:1;"/>
</linearGradient>
</defs>
<g id="surface5752861">
<path style=" stroke:none;fill-rule:nonzero;fill:url(#linear0);" d="M 24 30 L 24 25 C 24 24.449219 24.445312 24 25 24 L 30 24 Z M 24 30 "/>
<path style=" stroke:none;fill-rule:nonzero;fill:url(#linear1);" d="M 32 6 C 17.664062 6 6 17.664062 6 32 C 6 46.335938 17.664062 58 32 58 C 46.335938 58 58 46.335938 58 32 C 58 17.664062 46.335938 6 32 6 Z M 32 56 C 18.765625 56 8 45.234375 8 32 C 8 18.765625 18.765625 8 32 8 C 45.234375 8 56 18.765625 56 32 C 56 45.234375 45.234375 56 32 56 Z M 32 56 "/>
<path style=" stroke:none;fill-rule:nonzero;fill:url(#linear2);" d="M 42 20.183594 L 42 20 C 42 18.347656 40.652344 17 39 17 L 25 17 C 23.347656 17 22 18.347656 22 20 L 22 20.183594 C 21 20.597656 20 21.699219 20 23 L 20 44.070312 C 20 45.203125 20.628906 46.230469 21.640625 46.742188 C 22.074219 46.964844 22.539062 47.074219 23.003906 47.074219 C 23.625 47.074219 24.242188 46.878906 24.765625 46.496094 L 30.238281 42.515625 C 31.292969 41.75 32.710938 41.75 33.761719 42.515625 L 39.234375 46.496094 C 40.148438 47.164062 41.347656 47.257812 42.359375 46.742188 C 43.371094 46.230469 44 45.203125 44 44.070312 L 44 23 C 44 21.699219 43 20.597656 42 20.183594 Z M 25 19 L 39 19 C 39.550781 19 40 19.449219 40 20 L 24 20 C 24 19.449219 24.449219 19 25 19 Z M 42 44.070312 C 42 44.453125 41.796875 44.785156 41.453125 44.960938 C 41.109375 45.136719 40.71875 45.105469 40.410156 44.878906 L 34.9375 40.898438 C 33.179688 39.621094 30.820312 39.621094 29.0625 40.898438 L 23.589844 44.878906 C 23.28125 45.105469 22.890625 45.132812 22.546875 44.960938 C 22.203125 44.785156 22 44.453125 22 44.070312 L 22 23 C 22 22.449219 22.449219 22 23 22 L 41 22 C 41.550781 22 42 22.449219 42 23 Z M 42 44.070312 "/>
</g>
</svg>
